<?xml version="1.0" encoding="utf-8"?>
<!-- Generator: Adobe Illustrator 22.0.0, SVG Export Plug-In . SVG Version: 6.00 Build 0)  -->
<svg version="1.1" id="Layer_1" xmlns="http://www.w3.org/2000/svg" xmlns:xlink="http://www.w3.org/1999/xlink" x="0px" y="0px"
	 viewBox="0 0 42 25" style="enable-background:new 0 0 42 25;" xml:space="preserve">
<style type="text/css">
	.st0{clip-path:url(#SVGID_2_);fill:#FFFFFF;}
	.st1{clip-path:url(#SVGID_2_);fill:#BD0034;}
	.st2{clip-path:url(#SVGID_2_);fill:#1A237B;}
</style>
<g id="UNITED_KINGDOM_2_">
	<g>
		<g>
			<defs>
				<rect id="SVGID_1_" width="42" height="25"/>
			</defs>
			<clipPath id="SVGID_2_">
				<use xlink:href="#SVGID_1_"  style="overflow:visible;"/>
			</clipPath>
			<rect class="st0" width="42" height="25"/>
			<polygon class="st1" points="28.1,9 42,1.1 42,0 41,0 25.2,9 			"/>
			<polygon class="st1" points="27.5,16.5 42,24.8 42,23.1 30.4,16.5 			"/>
			<polygon class="st1" points="0,1.9 12.4,9 15.3,9 0,0.2 			"/>
			<polygon class="st1" points="14.7,16.5 0,24.9 0,25 2.7,25 17.6,16.5 			"/>
			<polygon class="st2" points="39.1,0 24.4,0 24.4,8.4 			"/>
			<polygon class="st2" points="17.9,0 3.3,0 17.9,8.4 			"/>
			<polygon class="st2" points="42,9 42,3.3 32,9 			"/>
			<polygon class="st2" points="42,22.1 42,16.5 32,16.5 			"/>
			<polygon class="st2" points="4.1,25 17.9,25 17.9,17.1 			"/>
			<polygon class="st2" points="24.4,25 38.3,25 24.4,17.1 			"/>
			<polygon class="st2" points="0,16.5 0,22.4 10.3,16.5 			"/>
			<polygon class="st2" points="0,9 10.3,9 0,3.1 			"/>
			<polygon class="st1" points="19.2,0 19.2,10.5 0,10.5 0,15 19.2,15 19.2,25 23.1,25 23.1,15 42,15 42,10.5 23.1,10.5 23.1,0 			
				"/>
		</g>
	</g>
</g>
</svg>
